        <svg
          xmlns="http://www.w3.org/2000/svg"
          width="1267"
          height="1135"
          preserveAspectRatio="xMinYMax meet"
          viewBox="0 0 1267 1135"
          fill="none"
        >
          <path
            d="M735.406 642.532H249.842V678.827H268.48H696.168H735.406V642.532Z"
            fill="#EBE4DD"
          />
          <path
            d="M505.867 1024.12L696.168 678.827H268.48L482.324 1024.12H505.867Z"
            fill="#EBE4DD"
          />
          <path
            d="M249.842 1133L735.406 1127.11V1024.12L249.842 1030V1133Z"
            fill="#EBE4DD"
          />
          <path
            d="M735.406 678.827H696.168L505.867 1024.12H482.324L268.48 678.827H249.842V1030L735.406 1024.12V678.827Z"
            fill="#ABB03C"
          />
          <path
            d="M249.842 642.532V641.532H248.842V642.532H249.842ZM735.406 642.532H736.406V641.532H735.406V642.532ZM735.406 1127.11L735.418 1128.11L736.406 1128.1V1127.11H735.406ZM249.842 1133H248.842V1134.01L249.854 1134L249.842 1133ZM505.867 1024.12V1025.12H506.457L506.742 1024.6L505.867 1024.12ZM482.324 1024.12L481.474 1024.64L481.767 1025.12H482.324V1024.12ZM249.842 643.532H735.406V641.532H249.842V643.532ZM735.393 1126.11L249.83 1132L249.854 1134L735.418 1128.11L735.393 1126.11ZM250.842 678.827V642.532H248.842V678.827H250.842ZM734.406 642.532V678.827H736.406V642.532H734.406ZM696.168 679.827H735.406V677.827H696.168V679.827ZM695.292 678.344L504.991 1023.63L506.742 1024.6L697.044 679.309L695.292 678.344ZM505.867 1023.12H482.324V1025.12H505.867V1023.12ZM249.842 679.827H268.48V677.827H249.842V679.827ZM268.48 679.827H696.168V677.827H268.48V679.827ZM483.174 1023.59L269.33 678.3L267.63 679.353L481.474 1024.64L483.174 1023.59ZM250.842 1133V1030H248.842V1133H250.842ZM250.842 1030V678.827H248.842V1030H250.842ZM734.406 678.827V1024.12H736.406V678.827H734.406ZM734.406 1024.12V1127.11H736.406V1024.12H734.406ZM249.854 1031L735.418 1025.12L735.393 1023.12L249.83 1029L249.854 1031Z"
            fill="black"
          />
          <circle cx="486.248" cy="929.946" r="51.9896" fill="#6B330E" />
          <circle cx="486.248" cy="929.946" r="30.409" fill="#E2A226" />
          <path
            d="M204.885 771.578L60.1945 687.168L194.743 581.157L291.196 703.573L204.885 771.578Z"
            fill="#ABAE3B"
            stroke="black"
            stroke-width="2"
          />
          <path
            d="M851.616 736.375L915.389 584.676L737.386 584.676L737.386 736.375L851.616 736.375Z"
            fill="#ABAE3B"
            stroke="black"
            stroke-width="2"
          />
          <path
            d="M532.352 539.534V587.6H586.304V539.534H532.352Z"
            fill="white"
          />
          <path
            d="M447.992 539.534V587.6H498.019V539.534H447.992Z"
            fill="white"
          />
          <path
            d="M233.167 545.419V609.18H762.872V539.534H586.304V587.6H532.352V539.534H498.019V587.6H447.992V539.534H233.167V545.419Z"
            fill="#36363E"
          />
          <path
            fill-rule="evenodd"
            clip-rule="evenodd"
            d="M199.815 506.182V637.627H793.281V506.182H199.815ZM233.167 609.18V545.419V539.534H447.992H498.019H532.352H586.304H762.872V609.18H233.167Z"
            fill="#848592"
          />
          <path
            d="M756.987 288.414L247.881 301.166V467.925L199.815 506.182H793.281L756.987 467.925V288.414Z"
            fill="#848592"
          />
          <path
            d="M334.203 233.482L247.881 301.166L756.987 288.414L666.74 227.596L334.203 233.482Z"
            fill="#848592"
          />
          <path
            d="M247.881 301.166L246.955 299.986L246.381 300.436V301.166H247.881ZM334.203 233.482L334.177 231.982L333.674 231.991L333.278 232.301L334.203 233.482ZM666.74 227.596L667.579 226.352L667.187 226.088L666.714 226.096L666.74 227.596ZM756.987 288.414H758.487V287.616L757.825 287.17L756.987 288.414ZM247.881 467.925L248.815 469.099L249.381 468.649V467.925H247.881ZM199.815 506.182L198.881 505.008L198.315 505.459V506.182H199.815ZM199.815 637.627H198.315V639.127H199.815V637.627ZM793.281 637.627V639.127H794.781V637.627H793.281ZM793.281 506.182H794.781V505.584L794.369 505.15L793.281 506.182ZM756.987 467.925H755.487V468.524L755.898 468.958L756.987 467.925ZM233.167 609.18H231.667V610.68H233.167V609.18ZM762.872 609.18V610.68H764.372V609.18H762.872ZM762.872 539.534H764.372V538.034H762.872V539.534ZM233.167 539.534V538.034H231.667V539.534H233.167ZM447.992 587.6H446.492V589.1H447.992V587.6ZM498.019 587.6V589.1H499.519V587.6H498.019ZM532.352 587.6H530.852V589.1H532.352V587.6ZM586.304 587.6V589.1H587.804V587.6H586.304ZM248.806 302.347L335.129 234.662L333.278 232.301L246.955 299.986L248.806 302.347ZM334.23 234.982L666.767 229.096L666.714 226.096L334.177 231.982L334.23 234.982ZM665.902 228.84L756.148 289.658L757.825 287.17L667.579 226.352L665.902 228.84ZM756.949 286.915L247.843 299.667L247.918 302.666L757.024 289.914L756.949 286.915ZM246.381 301.166V467.925H249.381V301.166H246.381ZM246.947 466.752L198.881 505.008L200.749 507.356L248.815 469.099L246.947 466.752ZM198.315 506.182V637.627H201.315V506.182H198.315ZM199.815 639.127H793.281V636.127H199.815V639.127ZM794.781 637.627V506.182H791.781V637.627H794.781ZM793.281 504.682H199.815V507.682H793.281V504.682ZM755.487 288.414V467.925H758.487V288.414H755.487ZM755.898 468.958L792.193 507.214L794.369 505.15L758.075 466.893L755.898 468.958ZM231.667 545.419V609.18H234.667V545.419H231.667ZM233.167 610.68H762.872V607.68H233.167V610.68ZM764.372 609.18V539.534H761.372V609.18H764.372ZM231.667 539.534V545.419H234.667V539.534H231.667ZM447.992 538.034H233.167V541.034H447.992V538.034ZM446.492 539.534V587.6H449.492V539.534H446.492ZM447.992 589.1H498.019V586.1H447.992V589.1ZM498.019 538.034H447.992V541.034H498.019V538.034ZM499.519 587.6V539.534H496.519V587.6H499.519ZM532.352 538.034H498.019V541.034H532.352V538.034ZM530.852 539.534V587.6H533.852V539.534H530.852ZM532.352 589.1H586.304V586.1H532.352V589.1ZM762.872 538.034H586.304V541.034H762.872V538.034ZM586.304 538.034H532.352V541.034H586.304V538.034ZM587.804 587.6V539.534H584.804V587.6H587.804Z"
            fill="black"
          />
          <path
            d="M502.924 380.622L427.392 339.423L442.106 316.861L495.077 339.423V311.957H525.486V333.537L565.704 311.957L576.494 333.537L507.829 380.622H502.924Z"
            fill="#37373F"
            stroke="black"
          />
          <path
            d="M472.958 411.031C472.958 448.165 435.1 479.159 387.173 479.159C339.247 479.159 301.389 448.165 301.389 411.031C301.389 373.897 339.247 342.904 387.173 342.904C435.1 342.904 472.958 373.897 472.958 411.031Z"
            fill="#E5AB25"
            stroke="black"
            stroke-width="5"
          />
          <path
            d="M385.211 396.957L326.355 372.775C297.999 400.616 310.037 430.806 319.488 441.44L380.148 425.958C367.995 411.264 378.46 400.501 385.211 396.957Z"
            fill="white"
          />
          <ellipse
            cx="389.135"
            cy="412.993"
            rx="15.695"
            ry="17.6568"
            fill="#0A170D"
          />
          <path
            d="M790.78 414.955C790.78 484.999 731.82 541.938 658.892 541.938C585.964 541.938 527.004 484.999 527.004 414.955C527.004 344.911 585.964 287.971 658.892 287.971C731.82 287.971 790.78 344.911 790.78 414.955Z"
            fill="#D1351E"
            stroke="black"
            stroke-width="5"
          />
          <path
            d="M653.987 396.957L567.665 333.537C539.31 361.379 510.771 430.65 562.76 489.506L648.924 425.958C636.772 411.264 647.236 400.501 653.987 396.957Z"
            fill="white"
          />
          <ellipse
            cx="657.911"
            cy="412.993"
            rx="15.695"
            ry="17.6568"
            fill="#0A170D"
          />
          <ellipse
            cx="507.829"
            cy="485.582"
            rx="48.0659"
            ry="31.3899"
            fill="#0A170D"
          />
          <g filter="url(#filter0_f_67_101)">
            <ellipse
              cx="484.286"
              cy="483.62"
              rx="12.7522"
              ry="5.88562"
              fill="#D9D9D9"
            />
          </g>
          <path
            d="M461.724 206.997C457.8 240.348 408.753 309.995 358.725 212.882C341.069 169.721 319.292 75.9435 373.439 46.1231C371.151 30.4281 372.851 1 386.192 1C399.532 1 400.579 25.8504 400.906 39.2565C432.296 35.3328 483.304 79.4749 461.724 206.997Z"
            fill="#E6A128"
            stroke="black"
            stroke-width="2"
          />
          <path
            d="M654.968 206.996C648.494 245.253 590.227 312.938 560.814 213.27C544.778 158.931 533.332 32.7774 615.731 41.6059C613.442 25.9109 619.655 8.25404 630.445 11.1969C643.316 14.707 643.851 33.1044 644.178 46.5105C675.568 42.5868 676.549 79.4748 654.968 206.996Z"
            fill="#E6A128"
            stroke="black"
            stroke-width="2"
          />
          <line
            x1="371.01"
            y1="94.6146"
            x2="423.894"
            y2="87.7909"
            stroke="#AE2D0E"
            stroke-width="8"
            stroke-linecap="round"
          />
          <line
            x1="595.869"
            y1="84.1176"
            x2="640.973"
            y2="92.4702"
            stroke="#AE2D0E"
            stroke-width="8"
            stroke-linecap="round"
          />
          <path
            d="M399.695 88.4536C403.927 115.361 406.229 130.509 408.754 158.931C409.751 192.492 410.996 206.636 413.809 227.826"
            stroke="#AE2D0E"
            stroke-width="8"
            stroke-linecap="round"
          />
          <path
            d="M619.655 92.227C611.744 122.704 608.893 140.812 607.884 168.033C605.628 203.603 601.018 204.054 604.662 235.444"
            stroke="#AE2D0E"
            stroke-width="8"
            stroke-linecap="round"
          />
          <path
            d="M68.3692 688.636L36.9792 717.083L169.406 796.539L197.853 768.092L68.3692 688.636Z"
            fill="#878B8E"
          />
          <path
            d="M169.406 796.539L36.9792 717.083C26.5159 727.873 5.39307 761.814 4.60832 811.253L160.577 867.166C155.672 854.109 150.572 821.704 169.406 796.539Z"
            fill="#34343C"
          />
          <path
            d="M160.577 867.166L4.60832 811.253V933.87L160.577 968.203V867.166Z"
            fill="#7B7E88"
          />
          <path
            d="M160.577 968.203L4.60832 933.87L-67 916.213L-59.1525 1026.08L-20.896 1034.62L-15.0104 1011.36L-0.296356 1014.31L-7.16291 1037.68L11.4749 1041.84L20.3033 1017.25L35.0173 1020.19L24.227 1044.69L48.7504 1050.16L58.5598 1024.12L75.2357 1028.04L64.4454 1053.67L87.0069 1058.7L98.7782 1031.96L120.359 1037.68L108.588 1063.52L160.577 1075.12L186.889 1004.5L197.853 975.069L160.577 968.203Z"
            fill="#7D8494"
          />
          <path
            d="M235.128 983.898L197.853 975.069L186.889 1004.5L224.338 1014.31L235.128 983.898Z"
            fill="#88878F"
          />
          <path
            d="M68.3692 688.636L68.8922 687.784L68.2532 687.392L67.6976 687.895L68.3692 688.636ZM36.9792 717.083L36.3077 716.342L36.2838 716.364L36.2613 716.387L36.9792 717.083ZM197.853 768.092L198.56 768.799L199.456 767.902L198.376 767.239L197.853 768.092ZM4.60832 811.253L3.60845 811.237L3.60832 811.245V811.253H4.60832ZM160.577 867.166H161.577V866.985L161.513 866.815L160.577 867.166ZM4.60832 933.87L4.36892 934.841L4.3811 934.844L4.39334 934.847L4.60832 933.87ZM160.577 968.203L160.362 969.179L160.379 969.183L160.396 969.186L160.577 968.203ZM-67 916.213L-66.7606 915.242L-68.0954 914.913L-67.9975 916.284L-67 916.213ZM-59.1525 1026.08L-60.15 1026.15L-60.0969 1026.89L-59.3704 1027.05L-59.1525 1026.08ZM160.577 1075.12L160.359 1076.1L161.21 1076.29L161.514 1075.47L160.577 1075.12ZM197.853 975.069L198.083 974.096L198.059 974.09L198.034 974.086L197.853 975.069ZM-20.896 1034.62L-21.1139 1035.59L-20.1651 1035.81L-19.9266 1034.86L-20.896 1034.62ZM-15.0104 1011.36L-14.8143 1010.38L-15.7465 1010.2L-15.9798 1011.12L-15.0104 1011.36ZM-0.296356 1014.31L0.663109 1014.59L0.971001 1013.54L-0.100243 1013.33L-0.296356 1014.31ZM-7.16291 1037.68L-8.12237 1037.4L-8.42348 1038.43L-7.38076 1038.66L-7.16291 1037.68ZM11.4749 1041.84L11.257 1042.82L12.118 1043.01L12.4161 1042.18L11.4749 1041.84ZM20.3033 1017.25L20.4994 1016.27L19.6535 1016.1L19.3621 1016.91L20.3033 1017.25ZM35.0173 1020.19L35.9325 1020.6L36.4344 1019.46L35.2135 1019.21L35.0173 1020.19ZM24.227 1044.69L23.3119 1044.29L22.8212 1045.4L24.0092 1045.67L24.227 1044.69ZM48.7504 1050.16L48.5326 1051.14L49.3802 1051.33L49.6863 1050.52L48.7504 1050.16ZM58.5598 1024.12L58.7888 1023.14L57.9336 1022.94L57.624 1023.76L58.5598 1024.12ZM75.2357 1028.04L76.1573 1028.43L76.6165 1027.34L75.4648 1027.07L75.2357 1028.04ZM64.4454 1053.67L63.5238 1053.28L63.0592 1054.38L64.2276 1054.64L64.4454 1053.67ZM87.0069 1058.7L86.7891 1059.68L87.5911 1059.86L87.9222 1059.11L87.0069 1058.7ZM98.7782 1031.96L99.0343 1031L98.2076 1030.78L97.8629 1031.56L98.7782 1031.96ZM120.359 1037.68L121.269 1038.1L121.76 1037.02L120.615 1036.72L120.359 1037.68ZM108.588 1063.52L107.678 1063.11L107.166 1064.23L108.37 1064.5L108.588 1063.52ZM235.128 983.898L236.071 984.232L236.443 983.182L235.359 982.925L235.128 983.898ZM224.338 1014.31L224.085 1015.27L224.973 1015.51L225.28 1014.64L224.338 1014.31ZM186.889 1004.5L185.952 1004.15L186.889 1004.5ZM67.6976 687.895L36.3077 716.342L37.6507 717.824L69.0407 689.377L67.6976 687.895ZM36.4647 717.941L168.891 797.396L169.92 795.681L37.4937 716.226L36.4647 717.941ZM170.113 797.246L198.56 768.799L197.146 767.385L168.698 795.832L170.113 797.246ZM198.376 767.239L68.8922 687.784L67.8461 689.488L197.33 768.944L198.376 767.239ZM36.2613 716.387C25.6235 727.357 4.39729 761.54 3.60845 811.237L5.6082 811.269C6.38885 762.088 27.4083 728.39 37.6971 717.779L36.2613 716.387ZM4.27086 812.194L160.24 868.108L160.915 866.225L4.94579 810.312L4.27086 812.194ZM161.513 866.815C159.106 860.406 156.628 849.173 157.089 836.43C157.549 823.695 160.942 809.516 170.206 797.138L168.605 795.94C159.035 808.727 155.561 823.334 155.09 836.357C154.619 849.372 157.143 860.869 159.641 867.518L161.513 866.815ZM3.60832 811.253V933.87H5.60832V811.253H3.60832ZM4.39334 934.847L160.362 969.179L160.792 967.226L4.8233 932.893L4.39334 934.847ZM161.577 968.203V867.166H159.577V968.203H161.577ZM4.84772 932.899L-66.7606 915.242L-67.2394 917.184L4.36892 934.841L4.84772 932.899ZM-67.9975 916.284L-60.15 1026.15L-58.1551 1026.01L-66.0025 916.142L-67.9975 916.284ZM198.034 974.086L160.758 967.219L160.396 969.186L197.672 976.053L198.034 974.086ZM-59.3704 1027.05L-21.1139 1035.59L-20.6782 1033.64L-58.9347 1025.1L-59.3704 1027.05ZM-19.9266 1034.86L-14.041 1011.61L-15.9798 1011.12L-21.8654 1034.37L-19.9266 1034.86ZM-15.2065 1012.34L-0.49247 1015.29L-0.100243 1013.33L-14.8143 1010.38L-15.2065 1012.34ZM-1.25582 1014.02L-8.12237 1037.4L-6.20345 1037.96L0.663109 1014.59L-1.25582 1014.02ZM-7.38076 1038.66L11.257 1042.82L11.6927 1040.87L-6.94506 1036.71L-7.38076 1038.66ZM12.4161 1042.18L21.2445 1017.59L19.3621 1016.91L10.5337 1041.51L12.4161 1042.18ZM20.1072 1018.23L34.8212 1021.17L35.2135 1019.21L20.4994 1016.27L20.1072 1018.23ZM34.1022 1019.79L23.3119 1044.29L25.1422 1045.09L35.9325 1020.6L34.1022 1019.79ZM24.0092 1045.67L48.5326 1051.14L48.9683 1049.19L24.4449 1043.71L24.0092 1045.67ZM49.6863 1050.52L59.4956 1024.47L57.624 1023.76L47.8146 1049.81L49.6863 1050.52ZM58.3308 1025.09L75.0067 1029.01L75.4648 1027.07L58.7888 1023.14L58.3308 1025.09ZM74.3141 1027.65L63.5238 1053.28L65.3671 1054.05L76.1573 1028.43L74.3141 1027.65ZM64.2276 1054.64L86.7891 1059.68L87.2248 1057.73L64.6633 1052.69L64.2276 1054.64ZM87.9222 1059.11L99.6934 1032.37L97.8629 1031.56L86.0917 1058.3L87.9222 1059.11ZM98.522 1032.93L120.103 1038.65L120.615 1036.72L99.0343 1031L98.522 1032.93ZM108.37 1064.5L160.359 1076.1L160.795 1074.15L108.805 1062.54L108.37 1064.5ZM119.449 1037.27L107.678 1063.11L109.498 1063.93L121.269 1038.1L119.449 1037.27ZM197.622 976.042L234.898 984.871L235.359 982.925L198.083 974.096L197.622 976.042ZM234.186 983.563L223.396 1013.97L225.28 1014.64L236.071 984.232L234.186 983.563ZM161.514 1075.47L187.826 1004.85L185.952 1004.15L159.64 1074.78L161.514 1075.47ZM187.826 1004.85L198.79 975.418L196.916 974.72L185.952 1004.15L187.826 1004.85ZM224.591 1013.34L187.143 1003.53L186.636 1005.46L224.085 1015.27L224.591 1013.34Z"
            fill="black"
          />
          <path
            d="M908.05 601.982L938.459 613.493L895.298 735.86L854.998 726.555L908.05 601.982Z"
            fill="#878B8E"
          />
          <path
            d="M895.298 735.86L938.459 613.493C968.463 641.72 1002.22 616.476 1029.57 606.237L1105.22 666.074C1092.58 673.022 1040.79 760.244 895.298 735.86Z"
            fill="#34343C"
          />
          <path
            d="M1105.22 666.074L1029.57 606.237L1069.9 542.477L1197.43 554.248L1105.22 666.074Z"
            fill="#7B7E88"
          />
          <path
            d="M1197.43 554.248L1069.9 542.477L1033.93 492.449L1033.93 472.83L1033.93 427.707L1067.28 427.707L1067.28 460.078L1088.86 460.078L1088.86 420.841L1110.44 420.841L1110.44 460.078L1129.08 460.078L1129.08 414.955L1155.56 414.955L1155.56 460.078L1173.22 460.078L1173.22 427.707L1194.8 427.707L1194.8 460.078L1216.06 460.078L1216.06 437.516L1246.47 437.517L1246.47 501.277L1230.78 529.724L1197.43 554.248Z"
            fill="#7D8494"
          />
          <path
            d="M1033.93 492.449L998.296 489.506L998.296 469.887L1033.93 469.887L1033.93 472.83L1033.93 492.449Z"
            fill="#878B8E"
          />
          <path
            d="M908.05 601.982L907.13 601.59L907.506 600.707L908.404 601.047L908.05 601.982ZM938.459 613.493L938.813 612.557L938.999 612.628L939.144 612.764L938.459 613.493ZM895.298 735.86L895.132 736.846L895.102 736.841L895.073 736.834L895.298 735.86ZM854.998 726.555L854.773 727.53L853.61 727.261L854.078 726.163L854.998 726.555ZM1105.22 666.074L1105.99 666.711L1105.87 666.859L1105.7 666.951L1105.22 666.074ZM1033.93 427.707L1032.93 427.707L1032.93 426.707L1033.93 426.707L1033.93 427.707ZM1246.47 437.517L1246.47 436.517L1247.47 436.517L1247.47 437.517L1246.47 437.517ZM1230.78 529.724L1231.65 530.208L1231.55 530.4L1231.37 530.53L1230.78 529.724ZM1067.28 427.707L1067.28 426.707L1068.28 426.707L1068.28 427.707L1067.28 427.707ZM1067.28 460.078L1067.28 461.078L1066.28 461.078L1066.28 460.078L1067.28 460.078ZM1088.86 460.078L1089.86 460.078L1089.86 461.078L1088.86 461.078L1088.86 460.078ZM1088.86 420.841L1087.86 420.841L1087.86 419.841L1088.86 419.841L1088.86 420.841ZM1110.44 420.841L1110.44 419.841L1111.44 419.841L1111.44 420.841L1110.44 420.841ZM1110.44 460.078L1110.44 461.078L1109.44 461.078L1109.44 460.078L1110.44 460.078ZM1129.08 460.078L1130.08 460.078L1130.08 461.078L1129.08 461.078L1129.08 460.078ZM1129.08 414.955L1128.08 414.955L1128.08 413.955L1129.08 413.955L1129.08 414.955ZM1155.56 414.955L1155.56 413.955L1156.56 413.955L1156.56 414.955L1155.56 414.955ZM1155.56 460.078L1155.56 461.078L1154.56 461.078L1154.56 460.078L1155.56 460.078ZM1173.22 460.078L1174.22 460.078L1174.22 461.078L1173.22 461.078L1173.22 460.078ZM1173.22 427.707L1172.22 427.707L1172.22 426.707L1173.22 426.707L1173.22 427.707ZM1194.8 427.707L1194.8 426.707L1195.8 426.707L1195.8 427.707L1194.8 427.707ZM1194.8 460.078L1194.8 461.078L1193.8 461.078L1193.8 460.078L1194.8 460.078ZM1216.06 460.078L1217.06 460.078L1217.06 461.078L1216.06 461.078L1216.06 460.078ZM1216.06 437.516L1215.06 437.516L1215.06 436.516L1216.06 436.516L1216.06 437.516ZM1246.47 501.277L1247.47 501.277L1247.47 501.535L1247.35 501.76L1246.47 501.277ZM998.296 489.506L998.214 490.503L997.296 490.427L997.296 489.506L998.296 489.506ZM998.296 469.887L997.296 469.887L997.296 468.887L998.296 468.887L998.296 469.887ZM1033.93 472.83L1032.93 472.83L1033.93 472.83ZM1033.93 469.887L1033.93 468.887L1034.93 468.887L1034.93 469.887L1033.93 469.887ZM908.404 601.047L938.813 612.557L938.105 614.428L907.696 602.917L908.404 601.047ZM939.402 613.825L896.241 736.192L894.355 735.527L937.516 613.16L939.402 613.825ZM895.073 736.834L854.773 727.53L855.223 725.581L895.523 734.885L895.073 736.834ZM854.078 726.163L907.13 601.59L908.97 602.374L855.918 726.947L854.078 726.163ZM939.144 612.764C946.514 619.698 954.078 623.318 961.688 624.724C969.312 626.132 977.044 625.33 984.758 623.322C992.476 621.313 1000.13 618.11 1007.61 614.748C1015.05 611.399 1022.34 607.876 1029.22 605.301L1029.92 607.174C1023.12 609.719 1015.94 613.19 1008.43 616.572C1000.94 619.941 993.152 623.204 985.262 625.258C977.366 627.312 969.324 628.168 961.325 626.691C953.313 625.211 945.406 621.401 937.774 614.221L939.144 612.764ZM1030.19 605.453L1105.84 665.29L1104.6 666.859L1028.95 607.022L1030.19 605.453ZM1105.7 666.951C1105.02 667.325 1104.15 668.006 1103.05 669.009C1101.97 670.002 1100.71 671.265 1099.26 672.764C1096.36 675.751 1092.71 679.654 1088.25 684.051C1079.31 692.858 1067.04 703.707 1050.59 713.574C1017.68 733.322 968.115 749.078 895.132 736.846L895.463 734.873C967.974 747.026 1017.05 731.363 1049.56 711.859C1065.83 702.1 1077.97 691.365 1086.85 682.626C1091.29 678.25 1094.89 674.39 1097.82 671.372C1099.28 669.869 1100.57 668.569 1101.7 667.533C1102.82 666.507 1103.84 665.692 1104.74 665.198L1105.7 666.951ZM1028.73 605.703L1069.06 541.942L1070.75 543.011L1030.42 606.772L1028.73 605.703ZM1070 541.481L1197.52 553.252L1197.33 555.244L1069.81 543.472L1070 541.481ZM1198.2 554.884L1105.99 666.711L1104.45 665.438L1196.65 553.612L1198.2 554.884ZM1069.09 543.06L1033.11 493.033L1034.74 491.865L1070.72 541.893L1069.09 543.06ZM1231.37 530.53L1198.02 555.053L1196.83 553.442L1230.19 528.919L1231.37 530.53ZM1033.93 426.707L1067.28 426.707L1067.28 428.707L1033.93 428.707L1033.93 426.707ZM1068.28 427.707L1068.28 460.078L1066.28 460.078L1066.28 427.707L1068.28 427.707ZM1067.28 459.078L1088.86 459.078L1088.86 461.078L1067.28 461.078L1067.28 459.078ZM1087.86 460.078L1087.86 420.841L1089.86 420.841L1089.86 460.078L1087.86 460.078ZM1088.86 419.841L1110.44 419.841L1110.44 421.841L1088.86 421.841L1088.86 419.841ZM1111.44 420.841L1111.44 460.078L1109.44 460.078L1109.44 420.841L1111.44 420.841ZM1110.44 459.078L1129.08 459.078L1129.08 461.078L1110.44 461.078L1110.44 459.078ZM1128.08 460.078L1128.08 414.955L1130.08 414.955L1130.08 460.078L1128.08 460.078ZM1129.08 413.955L1155.56 413.955L1155.56 415.955L1129.08 415.955L1129.08 413.955ZM1156.56 414.955L1156.56 460.078L1154.56 460.078L1154.56 414.955L1156.56 414.955ZM1155.56 459.078L1173.22 459.078L1173.22 461.078L1155.56 461.078L1155.56 459.078ZM1172.22 460.078L1172.22 427.707L1174.22 427.707L1174.22 460.078L1172.22 460.078ZM1173.22 426.707L1194.8 426.707L1194.8 428.707L1173.22 428.707L1173.22 426.707ZM1195.8 427.707L1195.8 460.078L1193.8 460.078L1193.8 427.707L1195.8 427.707ZM1194.8 459.078L1216.06 459.078L1216.06 461.078L1194.8 461.078L1194.8 459.078ZM1216.06 436.516L1246.47 436.517L1246.47 438.517L1216.06 438.516L1216.06 436.516ZM1215.06 460.078L1215.06 437.516L1217.06 437.516L1217.06 460.078L1215.06 460.078ZM1247.47 437.517L1247.47 501.277L1245.47 501.277L1245.47 437.517L1247.47 437.517ZM1247.35 501.76L1231.65 530.208L1229.9 529.241L1245.6 500.794L1247.35 501.76ZM1033.84 493.446L998.214 490.503L998.379 488.51L1034.01 491.452L1033.84 493.446ZM997.296 489.506L997.296 469.887L999.296 469.887L999.296 489.506L997.296 489.506ZM1032.93 492.449L1032.93 472.83L1034.93 472.83L1034.93 492.449L1032.93 492.449ZM1032.93 472.83L1032.93 427.707L1034.93 427.707L1034.93 472.83L1032.93 472.83ZM998.296 468.887L1033.93 468.887L1033.93 470.887L998.296 470.887L998.296 468.887ZM1034.93 469.887L1034.93 472.83L1032.93 472.83L1032.93 469.887L1034.93 469.887Z"
            fill="black"
          />
          <defs>
            <filter
              id="filter0_f_67_101"
              x="470.534"
              y="476.735"
              width="27.5044"
              height="13.7712"
              filterUnits="userSpaceOnUse"
              color-interpolation-filters="sRGB"
            >
              <feFlood flood-opacity="0" result="BackgroundImageFix" />
              <feBlend
                mode="normal"
                in="SourceGraphic"
                in2="BackgroundImageFix"
                result="shape"
              />
              <feGaussianBlur
                stdDeviation="0.5"
                result="effect1_foregroundBlur_67_101"
              />
            </filter>
          </defs>
        </svg>