<svg width="29" height="53" viewBox="0 0 29 53" fill="none" xmlns="http://www.w3.org/2000/svg">
<path d="M17.6047 0.345097C14.0039 -0.440882 10.2398 0.126304 7.03049 1.93844C3.82121 3.75058 1.39141 6.68082 0.204672 10.1701C0.0418131 10.6374 -0.0249705 11.1329 0.0083274 11.6267C0.0416253 12.1205 0.174317 12.6024 0.398446 13.0437C0.622575 13.4849 0.933523 13.8764 1.31264 14.1945C1.69175 14.5127 2.13121 14.751 2.60467 14.8951C3.07734 15.0458 3.57522 15.1013 4.06946 15.0582C4.56371 15.0151 5.0445 14.8744 5.48397 14.6442C5.92345 14.414 6.31288 14.0989 6.6297 13.7171C6.94652 13.3353 7.18444 12.8945 7.32967 12.4201C7.94153 10.7271 9.14192 9.31065 10.7116 8.4294C12.2814 7.54815 14.1157 7.2609 15.8797 7.6201C17.5969 8.13994 19.0709 9.25815 20.0341 10.7718C20.9973 12.2855 21.386 14.0943 21.1297 15.8701C20.7338 17.5481 19.7718 19.0384 18.4058 20.0902C17.0398 21.1421 15.3531 21.6912 13.6297 21.6451C13.1008 21.5812 12.5644 21.6306 12.0561 21.7902C11.5478 21.9498 11.0794 22.2159 10.682 22.5707C10.2846 22.9255 9.9674 23.3609 9.75146 23.8479C9.53552 24.335 9.42582 24.8624 9.42967 25.3951V37.0951C9.42967 38.0897 9.82476 39.0435 10.528 39.7468C11.2313 40.45 12.1851 40.8451 13.1797 40.8451C13.6686 40.8551 14.1545 40.7674 14.6091 40.5872C15.0636 40.407 15.4777 40.1379 15.8269 39.7956C16.1761 39.4533 16.4536 39.0448 16.6429 38.594C16.8323 38.1432 16.9298 37.6591 16.9297 37.1701V28.9201C19.8086 28.3138 22.4456 26.8742 24.5126 24.7805C26.5796 22.6868 27.9853 20.0316 28.5547 17.1451C29.1243 13.4871 28.3212 9.74774 26.2997 6.64632C24.2783 3.5449 21.1813 1.30056 17.6047 0.345097ZM12.9547 44.1451C11.9776 44.199 11.0548 44.6114 10.3629 45.3033C9.67097 45.9952 9.25857 46.9181 9.20467 47.8951V48.7201C9.21423 49.1896 9.31749 49.6524 9.50839 50.0814C9.69928 50.5104 9.97396 50.8969 10.3163 51.2183C10.6586 51.5397 11.0617 51.7894 11.5019 51.9529C11.9421 52.1163 12.4105 52.1902 12.8797 52.1701C13.8816 52.1134 14.825 51.6799 15.5206 50.9566C16.2161 50.2332 16.6123 49.2735 16.6297 48.2701V47.6701C16.6301 47.1943 16.5342 46.7233 16.3477 46.2856C16.1613 45.8478 15.8881 45.4523 15.5448 45.123C15.2014 44.7936 14.7949 44.5372 14.3497 44.3691C13.9046 44.2011 13.43 44.1249 12.9547 44.1451Z" fill="#fff"/>
</svg>
